<?xml version="1.0" encoding="utf-8"?>
<!-- Generator: Adobe Illustrator 19.0.0, SVG Export Plug-In . SVG Version: 6.00 Build 0)  -->
<svg version="1.1" id="Layer_1" xmlns="http://www.w3.org/2000/svg" xmlns:xlink="http://www.w3.org/1999/xlink" x="0px" y="0px"
	 viewBox="0 0 500 500" style="enable-background:new 0 0 500 500;" xml:space="preserve">
<style type="text/css">
	.st0{fill:url(#XMLID_26_);}
	.st1{fill:#FFFFFF;}
</style>
<g id="XMLID_1_">
	
		<linearGradient id="XMLID_26_" gradientUnits="userSpaceOnUse" x1="-2.739725e-007" y1="2.739725e-007" x2="1" y2="2.739725e-007" gradientTransform="matrix(0 365 365 0 249.9999 67.5001)">
		<stop  offset="0" style="stop-color:#3AD41A"/>
		<stop  offset="1" style="stop-color:#31B716"/>
	</linearGradient>
	<rect id="XMLID_6_" x="67.5" y="67.5" class="st0" width="365" height="365"/>
	<path id="XMLID_16_" class="st1" d="M366.9,341.3c19.2-13.7,31.4-34,31.4-56.7c0-41.1-40-74.5-89.3-74.5
		c-49.3,0-89.3,33.4-89.3,74.5c0,41.1,40,74.5,89.3,74.5c10.7,0,20.9-1.6,30.4-4.4c1.7-0.5,3.5-0.3,5,0.6l19.4,11.2
		c4.3,2.5,6.8,0.6,5.5-4.2l-4.2-16C364.6,344.3,365.3,342.4,366.9,341.3z M279.2,272.8c-6.7,0-12.1-5.4-12.1-12.1
		c0-6.7,5.4-12.1,12.1-12.1c6.7,0,12.1,5.4,12.1,12.1C291.3,267.4,285.9,272.8,279.2,272.8z M338.4,272.8c-6.7,0-12.1-5.4-12.1-12.1
		c0-6.7,5.4-12.1,12.1-12.1c6.7,0,12.1,5.4,12.1,12.1C350.5,267.4,345.1,272.8,338.4,272.8z"/>
	<path id="XMLID_20_" class="st1" d="M209.7,127.7c-59.3,0-107.3,40-107.3,89.3c0,27.1,14.5,51.4,37.4,67.8c2.2,1.5,3.1,4.2,2.5,6.8
		l-5,18.8c-1.5,5.7,1.4,7.9,6.5,4.9l23-13.4c2.1-1.2,4.5-1.5,6.8-0.8c11.3,3.4,23.5,5.2,36.2,5.2c1.9,0,3.9,0,5.8-0.1
		c-2.4-7-3.6-14.4-3.6-22c0-44.9,44-81.3,98.2-81.3c1.9,0,3.8,0,5.6,0.1C307.7,160.4,263.3,127.7,209.7,127.7z M173.7,202.6
		c-7.9,0-14.3-6.4-14.3-14.3c0-7.9,6.4-14.3,14.3-14.3c7.9,0,14.3,6.4,14.3,14.3C188,196.2,181.6,202.6,173.7,202.6z M245.4,202.6
		c-7.9,0-14.3-6.4-14.3-14.3c0-7.9,6.4-14.3,14.3-14.3c7.9,0,14.3,6.4,14.3,14.3C259.6,196.2,253.2,202.6,245.4,202.6z"/>
</g>
</svg>
